<svg version="1.1" xmlns="http://www.w3.org/2000/svg" xmlns:xlink="http://www.w3.org/1999/xlink" viewBox="0 0 127.6 56.7" width="127.6" height="56.7">
<rect fill="none" width="127.6" height="56.7"/>
<g>
	<path fill="#fff" d="M51.9,7.3c-0.7,2.2-1.7,4.8-2.5,6.8c1.7,2,2,3.8,2,5.3c0,1.9-0.4,3.1-1.4,3.7c-0.5,0.3-1,0.6-1.7,0.6
		c-0.5,0.1-1.2,0.1-1.9,0c0-0.9-0.3-2.2-0.8-3.1v5.8h-3.3V7.7c-0.5,1.2-1.1,2.4-1.7,3.5h1.1v2.9h-3c-0.4,0.5-0.8,0.9-1.2,1.4h3.5
		v10.7H38v-0.8h-2.9v1.1h-3V20c-0.3,0.2-0.5,0.3-0.8,0.4c-0.3-0.7-1.3-2.1-1.9-2.8c2-0.9,3.7-2.1,5.2-3.6h-4.6v-2.9h3.7V9.8H31V7
		h2.7V4.9h3.1V7h2.1V8c0.3-0.7,0.6-1.4,0.9-2.2l2.6,0.7V5.9H49l0.5-0.1L51.9,7.3z M38,18.1h-2.9v1H38V18.1z M38,22.7v-1.1h-2.9v1.1
		H38z M37.1,11.2c0.3-0.5,0.6-0.9,0.9-1.4h-1.1v1.4H37.1z M45.7,20.6c0.5,0,0.8,0,1.1,0c0.3,0,0.6,0,0.9-0.2
		c0.4-0.2,0.5-0.7,0.5-1.4c0-1.1-0.4-2.8-2-4.5c0.5-1.5,1.1-3.7,1.6-5.5h-2.2V20.6z"/>
	<path fill="#fff" d="M58,13.5c-0.3,3.3-0.9,6.7-2.3,9l-3.2-1.8c1.3-2,1.9-4.8,2.2-7.9L58,13.5z M62.5,11.3V22
		c0,1.1,0.1,1.3,1.1,1.3h2.5c1,0,1.2-0.7,1.3-4.1c0.8,0.6,2.2,1.2,3.1,1.4c-0.3,4.3-1.2,5.7-4.1,5.7h-3.3c-3.2,0-4.1-1.1-4.1-4.3
		V11.3H62.5z M61.2,4.7c2.7,1,5.8,2.7,7.6,4.1l-2.2,2.9c-1.7-1.5-4.9-3.4-7.6-4.5L61.2,4.7z M71,11.9c1.9,2.5,3.5,5.8,4.1,8.2
		l-3.4,1.7c-0.4-2.3-2-5.8-3.8-8.3L71,11.9z"/>
	<path fill="#fff" d="M86.7,10.1c-0.5,1.1-0.9,2.2-1.2,3h2.4v3H76v-3h2.4c-0.1-0.9-0.3-2.1-0.7-3l2.6-0.6h-3.9V6.7h4V4.9h3.2v1.8h4
		v2.9h-3.7L86.7,10.1z M77.2,17.4H87v9.1h-3.2v-1h-3.5v1h-3.1V17.4z M80.4,9.6c0.4,1,0.8,2.3,0.9,3.2l-1.9,0.4h5.2l-1.7-0.4
		c0.3-0.9,0.6-2.2,0.8-3.2H80.4z M80.2,20.3v2.3h3.5v-2.3H80.2z M97.8,7.4c-0.8,2.3-1.7,4.9-2.5,6.8c1.7,2,2,3.8,2,5.3
		c0,1.9-0.4,3-1.3,3.7c-0.5,0.3-1,0.6-1.6,0.6c-0.5,0.1-1.1,0.1-1.7,0.1c0-0.9-0.3-2.3-0.8-3.3c0.4,0,0.7,0,1,0c0.3,0,0.6,0,0.8-0.2
		c0.3-0.2,0.5-0.6,0.5-1.4c0-1.1-0.4-2.8-2-4.4c0.5-1.5,1.1-3.7,1.6-5.5h-2v17.4h-3.3V6h6.4l0.5-0.1L97.8,7.4z"/>
	<path fill="#fff" d="M37.5,42l0.8,2.9c-2.4,1.3-5.1,2.6-7.3,3.6l-1.3-3.4c0.8-0.3,1.8-0.7,2.9-1.1v-6H30v-3.2h2.5V30h3.1v4.9h2.1
		V38h-2.1v4.7L37.5,42z M47.4,48.1c1.2,0,1.4-0.5,1.6-2.7c0.7,0.5,2,1,2.9,1.2c-0.4,3.3-1.4,4.4-4.2,4.4h-4.5c-3.4,0-4.4-1-4.4-4.5
		v-5.2l-0.9,0.4l-1.2-2.9l2.2-0.9v-5.9H42v4.6l1.2-0.5v-6.3h3.1v5l1.1-0.5h0l0.5-0.3l0.6-0.4l2.3,0.8l-0.1,0.5c0,4.4,0,6.8-0.1,7.8
		c0,1.1-0.4,1.8-1.1,2.1c-0.7,0.4-1.7,0.4-2.5,0.4c-0.1-0.8-0.3-2-0.7-2.7V46h-3.1v-6.6L42,39.9v6.6c0,1.4,0.2,1.6,1.5,1.6H47.4z
		 M46.4,38v4.3c0.3,0,0.7,0,0.9,0c0.2,0,0.3-0.1,0.4-0.4c0-0.3,0-1.6,0-4.5L46.4,38z"/>
	<path fill="#fff" d="M65.1,34.7v3.4l0.6-0.7c2.4,1.2,6,3.1,7.7,4.6l-2.5,3.1c-1.2-1.2-3.6-2.7-5.7-4v10.3h-3.6V34.7h-8v-3.4h20.7
		v3.4H65.1z"/>
	<path fill="#fff" d="M93.4,42.3c0.9,2.8,2.4,5.2,4.7,6.5c-0.7,0.6-1.7,1.9-2.2,2.8c-2.1-1.4-3.4-3.4-4.4-6c-1.1,2.2-2.8,4.3-5.6,6
		c-0.4-0.5-1.1-1.4-1.8-2c-2.6,0.6-5.2,1.1-7.2,1.5l-0.6-3c0.9-0.1,2-0.3,3.2-0.5v-5.4h-2.9v-2.8h2.9v-1.2h-1.9v-1l-0.1,0.1
		c-0.4-0.7-1.4-1.7-2-2.2c1.9-1.6,3.1-3.7,3.8-5.4H82c1.3,1.1,3,2.6,3.8,3.8c0.2-0.9,0.4-1.9,0.5-2.9l3,0.5
		c-0.1,0.8-0.3,1.6-0.4,2.3h0.9v-3.6H93v3.6h4.1v3.1H93v0.9c0,0.6,0,1.2-0.1,1.8h4.7v3.1H93.4z M78.6,42.9c0.3,1.2,0.6,2.8,0.8,3.8
		l-2.2,0.6c0-1.1-0.3-2.6-0.6-3.9L78.6,42.9z M83.3,35.4c-0.6-0.9-1.4-1.9-2.3-2.7c-0.5,0.9-1.1,1.8-1.9,2.7H83.3z M85.3,48
		c2.3-1.7,3.4-3.7,4-5.7h-3.8v-3.1h4.3c0-0.6,0-1.2,0-1.8v-0.9H88c-0.4,1-0.8,1.9-1.2,2.6c-0.6-0.4-1.8-1.1-2.6-1.4v0.5h-2v1.2h2.6
		v2.8h-2.6v3.8c0.3-1,0.6-2.4,0.7-3.4l2.3,0.6c-0.4,1.3-0.8,2.6-1.1,3.5l1-0.2L85.3,48z M82.2,47.1l1.9-0.3l-1.9-0.5V47.1z
		 M84.2,35.5v1.9c0.6-1,1.1-2.3,1.5-3.7L84.2,35.5z"/>
</g>
</svg>
