<svg version="1.1" xmlns="http://www.w3.org/2000/svg" xmlns:xlink="http://www.w3.org/1999/xlink" viewBox="0 0 127.6 56.7" width="127.6" height="56.7">
<rect fill="none" width="127.6" height="56.7"/>
<g>
	<path fill="#fff" d="M50.1,26.5h-3.5v-0.9h-6.9v0.9h-3.4v-6.1c-1.5,0.8-3.1,1.5-4.7,2.1c-0.4-0.9-1.3-2.3-2-3
		c2.8-0.8,5.5-2.1,7.8-3.8c-0.8-0.9-2-1.9-3.1-2.8c-0.7,0.6-1.5,1.1-2.3,1.6c-0.5-0.8-1.6-2.1-2.3-2.6c3.8-2,6.3-4.7,7.7-7.3L41,5.2
		c-0.3,0.6-0.7,1.1-1.1,1.7h4.5L45,6.7L47.4,8c-1.1,3-2.8,5.6-4.9,7.8h7.6V26.5z M37.6,9.8c-0.3,0.3-0.6,0.6-0.8,0.9
		c1.1,0.8,2.4,1.8,3.3,2.6c1-1.1,1.9-2.2,2.6-3.5H37.6z M46.6,22.6v-3.8h-6.9v3.8H46.6z"/>
	<path fill="#fff" d="M65.6,11.7v3.7h6.5v11h-3.7v-0.9h-9.5v1h-3.5V15.4H62v-3.7h-8.8V8.5H62V4.7h3.7v3.8h8.8v3.3H65.6z M68.5,18.6
		h-9.5v3.8h9.5V18.6z"/>
	<path fill="#fff" d="M97.2,23.4V26H80.6v-2.6h6.6v-1.1H82v-2.6h5.1v-1L81.7,19l-0.1-2.6l2.3,0c0.2-0.4,0.5-0.8,0.7-1.2h-2.9
		c-0.2,3.8-0.8,8.3-2.8,11.3c-0.6-0.6-2.1-1.4-3-1.7c2.3-3.4,2.5-8.7,2.5-12.3V5.7h17.8v6.2H81.7v0.7h15v2.6h-2.6
		c1.1,0.9,2.3,1.9,3,2.7l-2.8,1.7c-0.3-0.3-0.6-0.7-1-1.1l-2.9,0.1v1.1h5.2v2.6h-5.2v1.1H97.2z M81.7,8.3v0.9h11.1V8.3H81.7z
		 M88.3,15.2c-0.3,0.4-0.6,0.7-0.8,1.1l3.3-0.1l-0.7-0.6l0.8-0.4H88.3z"/>
	<path fill="#fff" d="M47.4,45.8c0.9,1.4,2.4,2,4.7,2.1c2.8,0.1,8,0,11.4-0.3C63,48.4,62.5,50,62.3,51c-2.9,0.2-7.5,0.2-10.4,0.1
		c-2.7-0.1-4.6-0.7-6.1-2.5c-0.9,0.8-1.9,1.7-3.2,2.6l-1.6-3.5c0.9-0.5,2-1.2,3-1.9v-4.3h-2.4v-3.1h5.6V45.8z M45.2,35.8
		c-0.7-1.1-2.3-2.6-3.6-3.6l2.5-2c1.3,0.9,3,2.4,3.8,3.4L45.2,35.8z M53,39c-0.3,2.7-1.1,5.7-3.2,7.9c-0.4-0.7-1.7-1.9-2.4-2.3
		c2.3-2.4,2.5-5.7,2.5-8.3V31l2.9,0.5c2.6-0.4,5.1-1.1,6.8-1.8l2.7,2.5c-2.7,1-6.1,1.7-9.2,2.1v1.6h9.8V39h-3.6v8.1H56V39H53z"/>
	<path fill="#fff" d="M74.7,41c-0.4,1.2-0.9,2.4-1.5,3.4c1,0.9,1.9,1.7,2.5,2.5l-2.1,2.8c-0.5-0.7-1.3-1.6-2.3-2.5
		c-1.4,1.7-3.1,3.2-5,4.3c-0.4-0.7-1.5-2.2-2.2-2.8c1.9-0.9,3.4-2.1,4.7-3.7c-0.9-0.8-1.8-1.5-2.6-2.1l1.9-2.4
		c0.7,0.6,1.6,1.2,2.4,1.8c0.4-0.9,0.8-1.8,1.1-2.8l2.1,0.5c-0.6-1.1-1.4-2.3-2.2-3.3l2-1.1h-6.4l3,0.8c-0.8,2.1-2.3,4.2-3.7,5.5
		c-0.6-0.6-1.7-1.7-2.4-2.1c1.3-1,2.4-2.5,3-4.1h-2.5v-3h4.5v-2.9h3.3v2.9h4.3v3h-2.4c1.1,1.3,2.3,2.9,2.7,4.1L74.7,41z M86.3,32.4
		c-0.8,2.3-1.7,4.9-2.5,6.8c1.7,2,2,3.8,2,5.3c0,1.9-0.4,3-1.3,3.7c-0.5,0.3-1,0.6-1.7,0.6c-0.5,0.1-1.1,0.1-1.7,0.1
		c0-0.8-0.2-1.9-0.6-2.8v5.5h-3.2V31h6.1l0.5-0.1L86.3,32.4z M80.5,45.6c0.3,0,0.6,0,0.8,0c0.3,0,0.6-0.1,0.8-0.2
		c0.3-0.2,0.5-0.6,0.5-1.4c0-1.1-0.4-2.8-2-4.4c0.5-1.5,1.1-3.7,1.6-5.5h-1.7V45.6z"/>
</g>
</svg>
