<svg version="1.1" xmlns="http://www.w3.org/2000/svg" xmlns:xlink="http://www.w3.org/1999/xlink" viewBox="0 0 127.6 56.7" width="127.6" height="56.7">
<rect fill="none" width="127.6" height="56.7"/>
<g>
	<path fill="#fff" d="M36.8,20.6c-1.2,1.9-2.9,3.9-4.4,5.2c-0.7-0.6-2-1.5-2.7-2c1.5-1.1,3-2.9,3.7-4.3L36.8,20.6z M51,9.8H30.5V6.6
		h8.4v-2h3.6v2H51V9.8z M42.5,18.9v4.3c0,1.6-0.3,2.4-1.4,2.9c-1.1,0.5-2.6,0.5-4.3,0.5c-0.1-1-0.6-2.3-1-3.2c0.9,0,2.4,0.1,2.8,0
		c0.4,0,0.5-0.1,0.5-0.3v-4.2h-6v-7.7h15.7v7.7H42.5z M36.3,16h8.8v-2h-8.8V16z M47.5,19.5c1.4,1.4,3.2,3.4,4.1,4.9L48.3,26
		c-0.7-1.4-2.4-3.5-3.8-5L47.5,19.5z"/>
	<path fill="#fff" d="M61.4,6.8c-0.6,2-1.3,4.6-1.9,6.4c1.3,1.7,1.5,3.2,1.5,4.5c0,1.6-0.3,2.6-1.1,3.1c-0.4,0.3-0.9,0.4-1.4,0.5
		c-0.4,0-0.9,0.1-1.5,0.1c0-0.6-0.1-1.4-0.4-2.1v7.2h-2.9V5.7h4.9l0.5-0.1L61.4,6.8z M56.7,18.6h0.5c0.2,0,0.4,0,0.6-0.2
		c0.2-0.2,0.3-0.6,0.3-1.2c0-1-0.2-2.3-1.3-3.7c0.3-1.4,0.8-3.3,1.1-4.9h-1.1V18.6z M73.9,12.3c-0.5,3.8-1.4,6.8-2.9,9.1
		c1.1,1,2.5,1.7,4,2.3c-0.7,0.6-1.7,2-2.2,2.8c-1.5-0.7-2.8-1.5-4-2.6c-1.1,1.1-2.4,1.9-3.9,2.6c-0.3-0.7-1-1.8-1.7-2.5
		c-0.4,0.9-0.8,1.7-1.4,2.4c-0.5-0.6-1.8-1.7-2.5-2c2.4-3.3,2.6-8.2,2.6-11.7V5.9h11.9v3h-8.8v2.9h6l0.6-0.1L73.9,12.3z M66.8,21.4
		c-0.7-1-1.3-2.2-1.8-3.4c-0.3,1.9-0.7,3.9-1.4,5.6C64.8,23,65.9,22.3,66.8,21.4z M66.8,14.8c0.5,1.4,1.1,2.8,1.9,4
		c0.6-1.2,1.1-2.5,1.5-4H66.8z"/>
	<path fill="#fff" d="M97.2,8.6V21h-3.2v-0.8h-1.5v6.2h-3.2v-6.2h-1.5v0.9h-3v-3.3l-1.2,1.7c-0.3-0.5-0.9-1.1-1.4-1.8v8.8h-3.3v-7.1
		c-0.6,0.6-1.3,1.1-1.9,1.5c-0.3-0.9-1-2.6-1.5-3.2c2.2-1.2,4.2-3.4,5.4-5.8h-4.6v-3h2.6V4.7h3.3v4.2h0.4l0.6-0.1l1.6,1V8.6h4.6V4.8
		h3.2v3.8H97.2z M84.8,10.5c-0.5,1.4-1.2,2.8-2,4.1c0.6,0.4,1.4,1.1,2,1.6V10.5z M87.8,11.5V13h1.5v-1.4H87.8z M89.3,17.3v-1.5h-1.5
		v1.5H89.3z M92.5,11.5V13h1.5v-1.4H92.5z M94.1,17.3v-1.5h-1.5v1.5H94.1z"/>
	<path fill="#fff" d="M47.4,45.8c0.9,1.4,2.4,2,4.7,2.1c2.8,0.1,8,0,11.4-0.3C63,48.4,62.5,50,62.3,51c-2.9,0.2-7.5,0.2-10.4,0.1
		c-2.7-0.1-4.6-0.7-6.1-2.5c-0.9,0.8-1.9,1.7-3.2,2.6l-1.6-3.5c0.9-0.5,2-1.2,3-1.9v-4.3h-2.4v-3.1h5.6V45.8z M45.2,35.8
		c-0.7-1.1-2.3-2.6-3.6-3.6l2.5-2c1.3,0.9,3,2.4,3.8,3.4L45.2,35.8z M53,39c-0.3,2.7-1.1,5.7-3.2,7.9c-0.4-0.7-1.7-1.9-2.4-2.3
		c2.3-2.4,2.5-5.7,2.5-8.3V31l2.9,0.5c2.6-0.4,5.1-1.1,6.8-1.8l2.7,2.5c-2.7,1-6.1,1.7-9.2,2.1v1.6h9.8V39h-3.6v8.1H56V39H53z"/>
	<path fill="#fff" d="M74.7,41c-0.4,1.2-0.9,2.4-1.5,3.4c1,0.9,1.9,1.7,2.5,2.5l-2.1,2.8c-0.5-0.7-1.3-1.6-2.3-2.5
		c-1.4,1.7-3.1,3.2-5,4.3c-0.4-0.7-1.5-2.2-2.2-2.8c1.9-0.9,3.4-2.1,4.7-3.7c-0.9-0.8-1.8-1.5-2.6-2.1l1.9-2.4
		c0.7,0.6,1.6,1.2,2.4,1.8c0.4-0.9,0.8-1.8,1.1-2.8l2.1,0.5c-0.6-1.1-1.4-2.3-2.2-3.3l2-1.1h-6.4l3,0.8c-0.8,2.1-2.3,4.2-3.7,5.5
		c-0.6-0.6-1.7-1.7-2.4-2.1c1.3-1,2.4-2.5,3-4.1h-2.5v-3h4.5v-2.9h3.3v2.9h4.3v3h-2.4c1.1,1.3,2.3,2.9,2.7,4.1L74.7,41z M86.3,32.4
		c-0.8,2.3-1.7,4.9-2.5,6.8c1.7,2,2,3.8,2,5.3c0,1.9-0.4,3-1.3,3.7c-0.5,0.3-1,0.6-1.7,0.6c-0.5,0.1-1.1,0.1-1.7,0.1
		c0-0.8-0.2-1.9-0.6-2.8v5.5h-3.2V31h6.1l0.5-0.1L86.3,32.4z M80.5,45.6c0.3,0,0.6,0,0.8,0c0.3,0,0.6-0.1,0.8-0.2
		c0.3-0.2,0.5-0.6,0.5-1.4c0-1.1-0.4-2.8-2-4.4c0.5-1.5,1.1-3.7,1.6-5.5h-1.7V45.6z"/>
</g>
</svg>
