<svg version="1.1" xmlns="http://www.w3.org/2000/svg" xmlns:xlink="http://www.w3.org/1999/xlink" viewBox="0 0 127.6 85" width="127.6" height="85">
<rect fill="none" y="0" width="127.6" height="85"/>
<g>
	<path fill="#fff" d="M52.9,47.6c2.7,2.4,6.5,4.5,10.2,5.7c-1.2,1-2.8,3-3.5,4.3c-3.8-1.6-7.4-4.3-10.4-7.4v7.6H44v-7.4
		c-2.9,3-6.4,5.5-10.2,7.1c-0.7-1.2-2.3-3.2-3.4-4.1c3.7-1.3,7.3-3.4,10-5.8h-6.2V34.2h9.7v-1.4H31.6v-4.6h12.5v-2.6h5.2v2.6h12.8
		v4.6H49.3v1.4h10.1v13.4H52.9z M39.2,39.2h4.9v-1.4h-4.9V39.2z M39.2,44h4.9v-1.4h-4.9V44z M49.3,37.9v1.4h5.1v-1.4H49.3z
		 M54.3,42.6h-5.1V44h5.1V42.6z"/>
	<path fill="#fff" d="M73.2,26.2h5.2v31.4h-5.2V51c-2.4,1-4.7,2-6.8,2.9l-2.2-5.1c2.2-0.6,5.6-1.7,9-2.9v-7.4h-7.7v-4.9h7.7V26.2z
		 M91,52.5c1.2,0,1.4-1.4,1.6-6.8c1.2,0.9,3.4,1.9,4.7,2.2c-0.4,6.7-1.7,9.4-5.8,9.4h-4c-4.3,0-5.6-1.7-5.6-7.1v-24h5.2v9.6
		c2.2-1.5,4.4-3.2,6.2-4.6l3.5,4.5c-3.1,1.9-6.5,3.8-9.7,5.4v9.2c0,2,0.1,2.2,1.2,2.2C88.3,52.5,91,52.5,91,52.5z"/>
</g>
</svg>
