<svg version="1.1" xmlns="http://www.w3.org/2000/svg" xmlns:xlink="http://www.w3.org/1999/xlink" viewBox="0 0 127.6 85" width="127.6" height="85">
<rect fill="none" width="127.6" height="85"/>
<g>
	<path fill="#fff" d="M57.9,52.7c0.8,0,0.9-1,1.1-5.3c1.1,0.9,3.3,1.8,4.6,2.1c-0.4,5.9-1.7,8-5.1,8h-3.1c-3.7,0-5-1.5-5-6.6V38.8
		h-5.2c-0.8,8.2-3.4,14.9-11.2,19.2c-0.7-1.3-2.3-3.1-3.5-4c6.6-3.5,8.8-8.6,9.5-15.2h-7.6v-5h8c0-2.4,0-4.9,0-7.6h5.4
		c0,2.6,0,5.2-0.1,7.6h10.1v17.1c0,1.6,0.1,1.8,0.8,1.8H57.9z"/>
	<path fill="#fff" d="M70.8,35c-0.4,3.6-1,7.8-2.3,10.4l-4.3-1.7c1.2-2.5,2-6.2,2.3-9.8L70.8,35z M95.2,26.1v31.5h-5V43.4l-3,1.7
		c-0.3-1.5-1-3.7-1.8-5.7v16.5h-4.8v-12l-3.4,1.6c-0.1-1.4-0.6-3.3-1.2-5.3c-0.2,6.4-1.6,13.1-7.5,17.8c-0.7-1.2-2.5-3.1-3.6-3.9
		c5.6-4.4,6.3-11.1,6.3-16.9V26.2h4.9v9.5l2.5-1.1c0.7,1.7,1.5,3.7,2,5.6V27h4.8v8.6l2.3-1.2c0.9,1.6,1.7,3.6,2.4,5.3V26.1H95.2z"/>
</g>
</svg>
