<svg version="1.1" xmlns="http://www.w3.org/2000/svg" xmlns:xlink="http://www.w3.org/1999/xlink" viewBox="0 0 127.6 85" width="127.6" height="85">
<rect fill="none" width="127.6" height="85"/>
<g>
	<path fill="#fff" d="M61.1,15.5v17.7h-5.2v-1.6h-6.6v10.4h-5.2V31.5h-6.5v1.8h-5V15.5h11.5V9.6h5.2v5.8H61.1z M44.1,26.7v-6.4h-6.5
		v6.4H44.1z M55.9,26.7v-6.4h-6.6v6.4H55.9z"/>
	<path fill="#fff" d="M95.2,10.9v31h-5.3v-1.7H71.2v1.7h-5v-31H95.2z M89.9,35.6V15.4H71.2v20.3H89.9z M89.2,30.4v4H72v-4h6.3v-3.1
		h-5.1v-4.1h5.1v-2.3h-5.9v-4.3h16.4v4.3h-5.9v2.3h5.2v4.1h-0.9c0.7,0.8,1.4,1.7,1.8,2.3l-1.4,0.7H89.2z M82.9,30.4H85
		c-0.5-0.7-1.1-1.6-1.7-2.2l1.6-0.8h-2.1V30.4z"/>
	<path fill="#fff" d="M61.4,46.6v28.1h-5.2v-1.8h-19V75h-5V46.6H61.4z M56.2,68.1v-5.1c-0.2,0.1-0.4,0.3-0.6,0.4
		c-0.5,0.3-1.5,0.4-2.1,0.4h-2.1c-1,0-2.1-0.3-2.8-1c-0.7-0.7-1-1.5-1-4v-7.4h-2.1c-0.3,6.1-1.2,11.1-5.5,14.3
		c-0.5-1.1-1.7-2.5-2.7-3.5v5.9H56.2z M37.2,51.3v10.3c2.9-2.4,3.3-6,3.4-10.3H37.2z M56.2,51.3h-3.9v7.4c0,0.4,0,0.7,0,0.8
		c0.1,0.1,0.2,0.2,0.3,0.2h0.5c0.1,0,0.3,0,0.4-0.1c0.1-0.1,0.2-0.2,0.3-0.7c0.1-0.4,0.1-1.4,0.1-2.5c0.5,0.5,1.4,1,2.3,1.4V51.3z"
		/>
	<path fill="#fff" d="M95.2,44.9v31h-5.3v-1.7H71.2v1.7h-5v-31H95.2z M89.9,69.6V49.4H71.2v20.3H89.9z M89.2,64.4v4H72v-4h6.3v-3.1
		h-5.1v-4.1h5.1v-2.3h-5.9v-4.3h16.4v4.3h-5.9v2.3h5.2v4.1h-0.9c0.7,0.8,1.4,1.7,1.8,2.3l-1.4,0.7H89.2z M82.9,64.4H85
		c-0.5-0.7-1.1-1.6-1.7-2.2l1.6-0.8h-2.1V64.4z"/>
</g>
</svg>
