<svg version="1.1" xmlns="http://www.w3.org/2000/svg" xmlns:xlink="http://www.w3.org/1999/xlink" viewBox="0 0 127.6 85" width="127.6" height="85">
<rect fill="none" width="127.6" height="85"/>
<g>
	<path fill="#fff" d="M22.2,26.2h5.2v31.4h-5.2v-6.6c-2.4,1-4.7,2-6.8,2.9l-2.2-5.1c2.2-0.6,5.6-1.7,9-2.9v-7.4h-7.7v-4.9h7.7V26.2z
		 M40,52.5c1.2,0,1.4-1.4,1.6-6.8c1.2,0.9,3.4,1.9,4.7,2.2c-0.4,6.7-1.7,9.4-5.8,9.4h-4c-4.3,0-5.6-1.7-5.6-7.1v-24h5.2v9.6
		c2.2-1.5,4.4-3.2,6.2-4.6l3.5,4.5c-3.1,1.9-6.5,3.8-9.7,5.4v9.2c0,2,0.1,2.2,1.2,2.2H40z"/>
	<path fill="#fff" d="M53,41.9c-1.1-1.1-3.5-2.5-5.4-3.4l2.7-3.6c1.9,0.7,4.4,2,5.6,3.1L53,41.9z M48.1,55c1.4-2.7,3.3-6.9,4.8-11
		l3.9,2.7c-1.3,3.7-2.8,7.5-4.3,11L48.1,55z M54.6,33c-1.1-1.1-3.6-2.6-5.5-3.5l2.8-3.6c1.9,0.8,4.5,2.1,5.7,3.2L54.6,33z
		 M77.5,46.4c-0.1,1-0.1,1.8-0.2,2.6h2.4v4.2h-2.9c-0.2,1.4-0.6,2.3-1,2.8c-0.8,1.2-1.7,1.6-2.9,1.8c-1.1,0.2-2.7,0.2-4.3,0.1
		c0-1.2-0.5-2.9-1.2-4c1.4,0.1,2.5,0.1,3.2,0.1c0.5,0,0.9-0.1,1.2-0.6c0.1-0.1,0.1-0.2,0.2-0.3h-8.8l-0.3,1.7l-4.7-0.3
		c0.4-2.3,0.9-5.1,1.3-8.2h-2.8v-4.5h3.4c0.2-1.4,0.3-2.8,0.5-4.1c-0.2,0.2-0.3,0.4-0.5,0.5c-0.9-0.8-3-2.2-4.1-2.8
		c2.4-2.3,4.3-6.1,5.3-9.9l4.8,1.1c-0.2,0.9-0.5,1.8-0.8,2.6h14.2v4.4H63.3c-0.3,0.6-0.7,1.2-1,1.7H78c0,0,0,1.4-0.1,1.9
		c-0.1,1.7-0.1,3.2-0.2,4.6h2.4v4.5H77.5z M63.7,49H66c0.1-0.8,0.2-1.7,0.3-2.6h-2.2L63.7,49z M64.6,41.9h2.1l0.2-2.3h-2L64.6,41.9z
		 M72.8,49c0.1-0.7,0.1-1.6,0.2-2.6h-2.5c-0.1,0.9-0.2,1.8-0.3,2.6H72.8z M73.4,39.6h-2.3l-0.2,2.3h2.3L73.4,39.6z"/>
	<path fill="#fff" d="M90.5,49.5c1.3,2.1,3.6,3,6.9,3.1c4.1,0.2,11.9,0.1,16.8-0.4c-0.5,1.2-1.3,3.6-1.6,5
		c-4.3,0.2-11.1,0.3-15.3,0.1c-4-0.2-6.7-1-9-3.6c-1.4,1.2-2.8,2.4-4.7,3.9l-2.4-5.2c1.4-0.8,3-1.7,4.4-2.8v-6.3h-3.5v-4.6h8.3V49.5
		z M87.3,34.8c-1-1.6-3.4-3.8-5.3-5.4l3.7-3c1.9,1.4,4.4,3.5,5.6,5.1L87.3,34.8z M99,34.2c0.1-0.4,0.2-0.9,0.2-1.3h-7.8V29h4.1
		c-0.4-0.7-0.8-1.4-1.2-1.9l3.9-1.4c0.8,1,1.8,2.3,2.1,3.3l-0.1,0h3.4c0.5-1.1,1.2-2.4,1.5-3.4l5,1c-0.5,0.9-1.1,1.7-1.5,2.4h4.8V33
		h-8.9c-0.2,0.4-0.4,0.9-0.7,1.3h7.4v17H93.5v-17H99z M106.3,37.7h-8.1v1.2h8.1V37.7z M106.3,42.1h-8.1v1.2h8.1V42.1z M106.3,46.5
		h-8.1v1.2h8.1V46.5z"/>
</g>
</svg>
