<svg version="1.1" xmlns="http://www.w3.org/2000/svg" xmlns:xlink="http://www.w3.org/1999/xlink" viewBox="0 0 127.6 85" width="127.6" height="85">
<rect fill="none" width="127.6" height="85"/>
<g>
	<path fill="#fff" d="M39.5,33.5c1.3,2.1,3.6,3,6.9,3.1c4.1,0.2,11.9,0.1,16.8-0.4c-0.5,1.2-1.3,3.6-1.6,5
		c-4.3,0.2-11.1,0.3-15.3,0.1c-4-0.2-6.7-1-9-3.6c-1.4,1.2-2.8,2.4-4.7,3.9l-2.4-5.2c1.4-0.8,3-1.7,4.4-2.8v-6.3h-3.5v-4.6h8.3V33.5
		z M36.3,18.8c-1-1.6-3.4-3.8-5.3-5.4l3.7-3c1.9,1.4,4.4,3.5,5.6,5.1L36.3,18.8z M47.8,23.4c-0.4,3.9-1.6,8.5-4.7,11.6
		c-0.6-1.1-2.4-2.8-3.6-3.4c3.4-3.5,3.7-8.5,3.7-12.3v-7.7l4.3,0.7c3.8-0.6,7.5-1.6,10.1-2.7l4,3.7c-4,1.5-9,2.4-13.6,3.1v2.4h14.4
		v4.6h-5.4v12h-4.9v-12H47.8z"/>
	<path fill="#fff" d="M94,29.8c-1.4,2.4-3.1,4.5-5.1,6.3c0.8,0.8,1.6,1.2,2.5,1.2c1,0,1.4-0.9,1.7-4.3c1,1,2.5,2,3.7,2.4
		c-0.9,5.3-2.3,6.4-5.6,6.4c-2.3,0-4.3-1.1-5.9-2.9c-1.7,1.2-3.4,2.2-5.3,3.1c-0.3-0.6-0.8-1.3-1.4-1.9h-8.6v1h-3.7V28.9h13.2v8.3
		c1.1-0.6,2.1-1.2,3.1-1.9c-1.1-2.1-2-4.6-2.7-7.3H65.2v-3.8h14C78.4,19.6,78,14.6,78,9.6h4.8c-0.1,5.1,0.4,10.1,1.3,14.5h3.5
		c-0.3-0.3-0.6-0.6-0.9-0.9l1.5-0.8l-4,0.4l-0.6-3.5l2.3-0.1c0.3-0.3,0.6-0.7,1-1c-1.1-1-2.6-2.1-3.7-3l2.1-2.7l0.7,0.5
		c0.7-1.2,1.3-2.4,1.7-3.4l3.6,1.5c-1,1.2-1.9,2.5-2.8,3.7c0.3,0.2,0.5,0.4,0.8,0.6c0.9-1.2,1.7-2.3,2.3-3.3l3.4,1.7
		c-1.5,1.7-3.2,3.6-4.9,5.3l1.9-0.1c-0.1-0.5-0.3-1-0.5-1.4l3.2-1.1c0.7,1.7,1.5,4,1.7,5.4l-3.4,1.2c0-0.3-0.1-0.7-0.2-1.2l-2.1,0.2
		c0.6,0.6,1.3,1.4,1.7,1.9h4V28H85c0.5,1.6,1,3,1.6,4.3c1.3-1.3,2.4-2.7,3.3-4.2L94,29.8z M68.1,19.8c0.4-0.4,0.9-0.9,1.3-1.4
		c-1.2-1-2.7-2.1-3.8-3l2.1-2.8l0.8,0.5c0.7-1.2,1.3-2.6,1.7-3.6l3.6,1.6c-1,1.3-2,2.7-2.9,3.8c0.3,0.2,0.5,0.4,0.8,0.6
		c0.8-1.1,1.6-2.2,2.1-3.1l3.5,1.7c-1.1,1.3-2.2,2.6-3.4,3.9l3-0.9c0.7,1.9,1.5,4.3,1.7,5.8l-3.4,1.2c0-0.4-0.1-0.8-0.2-1.2
		c-3.1,0.3-6.2,0.6-8.8,0.8l-0.6-3.7L68.1,19.8z M70.1,31.9v1.2h1.4v-1.2H70.1z M70.1,37.2h1.4v-1.4h-1.4V37.2z M74.2,19.6
		c-0.1-0.5-0.3-1-0.4-1.4c-0.5,0.5-1,1-1.4,1.5L74.2,19.6z M75.9,31.9h-1.4v1.2h1.4V31.9z M75.9,37.2v-1.4h-1.4v1.4H75.9z"/>
	<path fill="#fff" d="M61.1,49.5v17.7h-5.2v-1.6h-6.6v10.4h-5.2V65.5h-6.5v1.8h-5V49.5h11.5v-5.8h5.2v5.8H61.1z M44.1,60.7v-6.4
		h-6.5v6.4H44.1z M55.9,60.7v-6.4h-6.6v6.4H55.9z"/>
	<path fill="#fff" d="M80.7,51.7c-0.7,1.7-1.3,3.3-1.8,4.5h3.5v4.5H64.8v-4.5h3.5c-0.1-1.3-0.5-3.1-1-4.5l3.9-0.8h-5.7v-4.2h5.9
		v-2.7h4.8v2.7H82v4.2h-5.4L80.7,51.7z M66.6,62.5h14.5v13.4h-4.8v-1.4h-5.2V76h-4.6V62.5z M71.4,50.9c0.6,1.4,1.1,3.4,1.3,4.7
		l-2.8,0.6h7.6l-2.5-0.6c0.4-1.3,0.9-3.2,1.2-4.7H71.4z M71.1,66.7v3.5h5.2v-3.5H71.1z M97,47.6c-1.1,3.4-2.5,7.3-3.7,10.1
		c2.5,3,2.9,5.6,2.9,7.8c0,2.8-0.6,4.5-2,5.4c-0.7,0.5-1.5,0.8-2.4,1C91.1,72,90.3,72,89.3,72c0-1.4-0.4-3.5-1.2-4.8
		c0.6,0,1.1,0.1,1.5,0c0.4,0,0.8-0.1,1.1-0.3c0.5-0.3,0.7-1,0.7-2.1c0-1.7-0.6-4.1-2.9-6.6c0.8-2.2,1.7-5.5,2.4-8.1h-2.9v25.8h-4.8
		V45.5h9.4l0.7-0.2L97,47.6z"/>
</g>
</svg>
