<svg version="1.1" xmlns="http://www.w3.org/2000/svg" xmlns:xlink="http://www.w3.org/1999/xlink" viewBox="0 0 127.6 56.7" width="127.6" height="56.7">
<rect fill="none" width="127.6" height="56.7"/>
<g>
	<path fill="#fff" d="M33.4,33.3c1.8,1.6,4.4,3,6.9,3.9c-0.8,0.7-1.9,2-2.4,2.9c-2.6-1.1-5-2.9-7-5v5.2h-3.5v-5
		c-1.9,2-4.3,3.7-6.9,4.8c-0.5-0.8-1.6-2.1-2.3-2.8c2.5-0.9,5-2.3,6.8-4h-4.2v-9.1h6.6v-1H19v-3.1h8.4v-1.7H31v1.7h8.7v3.1H31v1h6.9
		v9.1H33.4z M24.2,27.6h3.3v-0.9h-3.3V27.6z M24.2,30.9h3.3v-0.9h-3.3V30.9z M31,26.7v0.9h3.4v-0.9H31z M34.4,29.9H31v0.9h3.4V29.9z
		"/>
	<path fill="#fff" d="M48.3,34.4c-1.2,1.9-2.9,3.9-4.4,5.2c-0.7-0.6-2-1.5-2.7-2c1.5-1.1,3-2.9,3.7-4.3L48.3,34.4z M62.5,23.6H42
		v-3.2h8.4v-2H54v2h8.5V23.6z M54,32.6v4.3c0,1.6-0.3,2.4-1.4,2.9c-1.1,0.5-2.6,0.5-4.3,0.5c-0.1-1-0.6-2.3-1-3.2
		c0.9,0,2.4,0.1,2.8,0c0.4,0,0.5-0.1,0.5-0.3v-4.2h-6v-7.7h15.7v7.7H54z M47.8,29.8h8.8v-2h-8.8V29.8z M59,33.2
		c1.4,1.4,3.2,3.4,4.1,4.9l-3.3,1.7c-0.7-1.4-2.4-3.5-3.8-5L59,33.2z"/>
	<path fill="#fff" d="M70.4,34.6c0.9,1.4,2.4,2,4.7,2.1c2.8,0.1,8,0,11.4-0.3c-0.4,0.8-0.9,2.4-1.1,3.4C82.4,40,77.8,40,75,39.9
		c-2.7-0.1-4.6-0.7-6.1-2.5c-0.9,0.8-1.9,1.7-3.2,2.6l-1.6-3.5c0.9-0.5,2-1.2,3-1.9v-4.3h-2.4v-3.1h5.6V34.6z M68.2,24.6
		c-0.7-1.1-2.3-2.6-3.6-3.6l2.5-2c1.3,0.9,3,2.4,3.8,3.4L68.2,24.6z M76,27.8c-0.3,2.7-1.1,5.7-3.2,7.9c-0.4-0.7-1.7-1.9-2.4-2.3
		c2.3-2.4,2.5-5.7,2.5-8.3v-5.2l2.9,0.5c2.6-0.4,5.1-1.1,6.8-1.8l2.7,2.5c-2.7,1-6.1,1.7-9.2,2.1v1.6h9.8v3.1h-3.6v8.1H79v-8.1H76z"
		/>
	<path fill="#fff" d="M97.7,29.8c-0.4,1.2-0.9,2.4-1.5,3.4c1,0.9,1.9,1.7,2.5,2.5l-2.1,2.8c-0.5-0.7-1.3-1.6-2.3-2.5
		c-1.4,1.7-3.1,3.2-5,4.3c-0.4-0.7-1.5-2.2-2.2-2.8c1.9-0.9,3.4-2.1,4.7-3.7c-0.9-0.8-1.8-1.5-2.6-2.1l1.9-2.4
		c0.7,0.6,1.6,1.2,2.4,1.8c0.4-0.9,0.8-1.8,1.1-2.8l2.1,0.5c-0.6-1.1-1.4-2.3-2.2-3.3l2-1.1h-6.4l3,0.8c-0.8,2.1-2.3,4.2-3.7,5.4
		c-0.6-0.6-1.7-1.7-2.4-2.1c1.3-1,2.4-2.5,3-4.1h-2.5v-3h4.5v-2.9h3.3v2.9h4.3v3h-2.4c1.1,1.3,2.3,2.9,2.7,4.1L97.7,29.8z
		 M109.3,21.1c-0.8,2.3-1.7,4.9-2.5,6.8c1.7,2,2,3.8,2,5.3c0,1.9-0.4,3-1.3,3.7c-0.5,0.3-1,0.6-1.7,0.6c-0.5,0.1-1.1,0.1-1.7,0.1
		c0-0.8-0.2-1.9-0.6-2.8v5.5h-3.2V19.7h6.1l0.5-0.1L109.3,21.1z M103.5,34.4c0.3,0,0.6,0,0.8,0c0.3,0,0.6-0.1,0.8-0.2
		c0.3-0.2,0.5-0.6,0.5-1.4c0-1.1-0.4-2.8-2-4.4c0.5-1.5,1.1-3.7,1.6-5.5h-1.7V34.4z"/>
</g>
</svg>
