<svg version="1.1" xmlns="http://www.w3.org/2000/svg" xmlns:xlink="http://www.w3.org/1999/xlink" viewBox="0 0 127.6 56.7" width="127.6" height="56.7">
<rect fill="none" width="127.6" height="56.7"/>
<g>
	<path fill="#fff" d="M21.3,13.8c1.3,4.2,3.5,7.5,7.1,9.2c-0.7,0.7-1.7,2.2-2.1,3.2c-3.4-1.9-5.6-4.9-7.1-9c-1.1,3.5-3.2,6.7-7,9
		c-0.4-0.9-1.3-2.1-2.1-2.9c4.3-2.3,6.1-5.7,6.9-9.5h-6.5v-3.5h6.9c0.1-2,0.1-4,0.1-6h3.1c0,1.9,0,3.9-0.2,6h7.5v3.5H21.3z"/>
	<path fill="#fff" d="M36.6,6.5c-0.5,2-1.1,4.6-1.6,6.4c1.1,1.7,1.3,3.2,1.3,4.5c0,1.6-0.3,2.6-0.9,3.1c-0.3,0.3-0.7,0.4-1.2,0.5
		c-0.3,0-0.8,0.1-1.3,0.1c0-0.6-0.1-1.4-0.3-2.1v7.2h-2.5V5.4h4.2l0.4-0.1L36.6,6.5z M32.7,18.3h0.4c0.2,0,0.4,0,0.5-0.2
		c0.2-0.2,0.3-0.6,0.3-1.2c0-1-0.2-2.3-1.1-3.7c0.3-1.4,0.6-3.3,0.9-4.9h-1V18.3z M47.3,12c-0.4,3.8-1.2,6.8-2.5,9.1
		c1,1,2.1,1.7,3.4,2.3c-0.6,0.6-1.4,2-1.8,2.8c-1.3-0.7-2.4-1.5-3.4-2.6c-0.9,1.1-2,1.9-3.3,2.6c-0.3-0.7-0.9-1.8-1.4-2.5
		c-0.3,0.9-0.7,1.7-1.2,2.4c-0.4-0.6-1.6-1.7-2.1-2c2.1-3.3,2.2-8.2,2.2-11.7V5.6h10.1v3h-7.5v2.9h5.1l0.5-0.1L47.3,12z M41.2,21.1
		c-0.6-1-1.1-2.2-1.5-3.4c-0.2,1.9-0.6,3.9-1.2,5.6C39.6,22.8,40.5,22.1,41.2,21.1z M41.3,14.5c0.4,1.4,0.9,2.8,1.6,4
		c0.5-1.2,1-2.5,1.3-4H41.3z"/>
	<path fill="#fff" d="M56.7,15.3c0,1.8-1.2,3.2-2.7,3.2c-1.5,0-2.7-1.4-2.7-3.2c0-1.8,1.2-3.2,2.7-3.2
		C55.5,12.1,56.7,13.6,56.7,15.3z"/>
	<path fill="#fff" d="M77.2,26.2h-3v-0.9h-5.9v0.9h-2.9v-6.1c-1.3,0.8-2.6,1.5-4,2.1c-0.4-0.9-1.1-2.3-1.7-3
		c2.4-0.8,4.7-2.1,6.6-3.8c-0.7-0.9-1.7-1.9-2.6-2.8c-0.6,0.6-1.3,1.1-2,1.6c-0.4-0.8-1.3-2.1-2-2.6c3.2-2,5.4-4.7,6.5-7.3L69.5,5
		c-0.3,0.6-0.6,1.1-0.9,1.7h3.8l0.5-0.2l2,1.2c-0.9,3-2.4,5.6-4.1,7.8h6.5V26.2z M66.7,9.6c-0.2,0.3-0.5,0.6-0.7,0.9
		c0.9,0.8,2,1.8,2.8,2.6c0.9-1.1,1.6-2.2,2.2-3.5H66.7z M74.3,22.3v-3.8h-5.9v3.8H74.3z"/>
	<path fill="#fff" d="M90.5,11.5v3.7H96v11h-3.1v-0.9h-8.1v1h-3V15.1h5.6v-3.7h-7.5V8.2h7.5V4.4h3.1v3.8h7.4v3.3H90.5z M92.9,18.3
		h-8.1v3.8h8.1V18.3z"/>
	<path fill="#fff" d="M117.3,23.2v2.6h-14.1v-2.6h5.6v-1.1h-4.4v-2.6h4.4v-1l-4.6,0.2l-0.1-2.6l2,0c0.2-0.4,0.4-0.8,0.6-1.2h-2.5
		c-0.2,3.8-0.7,8.3-2.4,11.3c-0.5-0.6-1.8-1.4-2.5-1.7c2-3.4,2.1-8.7,2.1-12.3V5.4h15.2v6.2h-12.3v0.7h12.8v2.6h-2.2
		c1,0.9,2,1.9,2.5,2.7l-2.4,1.7c-0.2-0.3-0.5-0.7-0.8-1.1l-2.5,0.1v1.1h4.4v2.6h-4.4v1.1H117.3z M104.1,8.1V9h9.4V8.1H104.1z
		 M109.7,14.9c-0.2,0.4-0.5,0.7-0.7,1.1l2.8-0.1l-0.6-0.6l0.6-0.4H109.7z"/>
	<path fill="#fff" d="M37.5,41.7l0.8,2.9c-2.4,1.3-5.1,2.6-7.3,3.6l-1.3-3.4c0.8-0.3,1.8-0.7,2.9-1.1v-6H30v-3.2h2.5v-4.9h3.1v4.9
		h2.1v3.2h-2.1v4.7L37.5,41.7z M47.4,47.9c1.2,0,1.4-0.5,1.6-2.7c0.7,0.5,2,1,2.9,1.2c-0.4,3.3-1.4,4.4-4.2,4.4h-4.5
		c-3.4,0-4.4-1-4.4-4.5v-5.2l-0.9,0.4l-1.2-2.9l2.2-0.9v-5.9H42v4.6l1.2-0.5v-6.3h3.1v5l1.1-0.5h0l0.5-0.3l0.6-0.4L51,34l-0.1,0.5
		c0,4.4,0,6.8-0.1,7.8c0,1.1-0.4,1.8-1.1,2.1c-0.7,0.4-1.7,0.4-2.5,0.4c-0.1-0.8-0.3-2-0.7-2.7v3.6h-3.1v-6.6L42,39.7v6.6
		c0,1.4,0.2,1.6,1.5,1.6H47.4z M46.4,37.8v4.3c0.3,0,0.7,0,0.9,0c0.2,0,0.3-0.1,0.4-0.4c0-0.3,0-1.6,0-4.5L46.4,37.8z"/>
	<path fill="#fff" d="M65.1,34.5v3.4l0.6-0.7c2.4,1.2,6,3.1,7.7,4.6l-2.5,3.1c-1.2-1.1-3.6-2.7-5.7-4v10.3h-3.6V34.5h-8v-3.4h20.7
		v3.4H65.1z"/>
	<path fill="#fff" d="M93.4,42.1c0.9,2.8,2.4,5.2,4.7,6.5c-0.7,0.6-1.7,1.9-2.2,2.8c-2.1-1.4-3.4-3.4-4.4-6c-1.1,2.2-2.8,4.3-5.6,6
		c-0.4-0.5-1.1-1.4-1.8-2c-2.6,0.6-5.2,1.1-7.2,1.5l-0.6-3c0.9-0.1,2-0.3,3.2-0.5V42h-2.9v-2.8h2.9v-1.2h-1.9v-1L77.4,37
		c-0.4-0.7-1.4-1.7-2-2.2c1.9-1.6,3.1-3.7,3.8-5.4H82c1.3,1.1,3,2.6,3.8,3.8c0.2-0.9,0.4-1.9,0.5-2.9l3,0.5
		c-0.1,0.8-0.3,1.6-0.4,2.3h0.9v-3.6H93v3.6h4.1v3.1H93v0.9c0,0.6,0,1.2-0.1,1.8h4.7v3.1H93.4z M78.6,42.6c0.3,1.2,0.6,2.8,0.8,3.8
		L77.2,47c0-1.1-0.3-2.6-0.6-3.9L78.6,42.6z M83.3,35.2c-0.6-0.9-1.4-1.9-2.3-2.7c-0.5,0.9-1.1,1.8-1.9,2.7H83.3z M85.3,47.8
		c2.3-1.7,3.4-3.7,4-5.7h-3.8V39h4.3c0-0.6,0-1.2,0-1.8v-0.9H88c-0.4,1-0.8,1.9-1.2,2.6c-0.6-0.4-1.8-1.1-2.6-1.4v0.5h-2v1.2h2.6V42
		h-2.6v3.8c0.3-1,0.6-2.4,0.7-3.4l2.3,0.6c-0.4,1.3-0.8,2.6-1.1,3.5l1-0.2L85.3,47.8z M82.2,46.8l1.9-0.3L82.2,46V46.8z M84.2,35.3
		v1.9c0.6-1,1.2-2.3,1.5-3.7L84.2,35.3z"/>
</g>
</svg>
