<svg version="1.1" xmlns="http://www.w3.org/2000/svg" xmlns:xlink="http://www.w3.org/1999/xlink" viewBox="0 0 127.6 127.6" width="127.6" height="127.6">
<rect fill="#eee" width="127.6" height="127.6"/>
<g>
	<rect fill="#d3e179" x="33.7" y="104.5" width="17" height="9.4"/>
	<rect fill="#d3e179" x="29.5" y="85.6" width="25.5" height="17"/>
	<rect fill="#fad181" x="57" y="85.6" width="26.9" height="28.3"/>
	<polygon fill="#7ac8f3" points="122.8,5.1 85.9,5.1 85.9,41.9 97.3,41.9 97.3,35.9 122.8,35.9 	"/>
	<polygon fill="#8183c5" points="85.9,43.9 85.9,69.4 97.3,69.4 97.3,83.6 114.3,83.6 114.3,43.9 	"/>
	<polygon fill="#ec7aab" points="95.1,71.4 85.9,71.4 85.9,114 114.3,114 114.3,85.6 95.1,85.6 	"/>
	<rect fill="#92c897" x="4.8" y="85.6" width="22.7" height="36.9"/>
</g>
<g>
	<path d="M34.3,5.7v34.8h-7.9l0-23.5l-3.1,23.5h-5.6l-3.3-22.9l0,22.9H6.4V5.7h11.7c0.3,2.1,0.7,4.6,1.1,7.4l1.3,8.8l2.1-16.2H34.3z
		"/>
	<path d="M53.6,5.7l5.2,34.8h-9.2L49,34.2h-3.2l-0.5,6.3h-9.4l4.6-34.8H53.6z M48.8,28.1c-0.5-3.9-0.9-8.8-1.4-14.6
		c-0.9,6.7-1.5,11.5-1.7,14.6H48.8z"/>
	<path d="M60.3,5.7h9.1c2.5,0,4.4,0.2,5.7,0.6s2.3,0.9,3,1.7s1.1,1.6,1.4,2.7c0.2,1,0.4,2.6,0.4,4.8v3c0,2.2-0.2,3.8-0.7,4.9
		c-0.5,1-1.3,1.8-2.5,2.3c-1.2,0.5-2.8,0.8-4.8,0.8h-2.4v14h-9V5.7z M69.4,11.7v8.9c0.3,0,0.5,0,0.7,0c0.8,0,1.4-0.2,1.7-0.6
		s0.5-1.3,0.5-2.5v-2.9c0-1.2-0.2-2-0.6-2.3C71.3,11.8,70.5,11.7,69.4,11.7z"/>
</g>
<g>
	<path d="M27,64.5c0,0.1,0,0.2-0.1,0.2c-0.1,0.1-0.1,0.1-0.3,0.2c-0.1,0-0.3,0.1-0.5,0.1s-0.5,0-0.8,0s-0.6,0-0.8,0
		c-0.2,0-0.4-0.1-0.5-0.1s-0.2-0.1-0.3-0.2c-0.1-0.1-0.1-0.2-0.1-0.2V50.2l0,0l-5.2,14.3c0,0.1-0.1,0.2-0.2,0.3
		c-0.1,0.1-0.2,0.1-0.3,0.2c-0.1,0-0.3,0.1-0.5,0.1c-0.2,0-0.5,0-0.8,0c-0.3,0-0.6,0-0.8,0c-0.2,0-0.4-0.1-0.5-0.1
		c-0.1-0.1-0.3-0.1-0.3-0.2c-0.1-0.1-0.1-0.2-0.2-0.3l-5-14.3l0,0v14.4c0,0.1,0,0.2-0.1,0.2c-0.1,0.1-0.1,0.1-0.3,0.2
		c-0.1,0-0.3,0.1-0.5,0.1c-0.2,0-0.5,0-0.8,0s-0.6,0-0.8,0S6.9,65,6.8,65s-0.2-0.1-0.3-0.2c-0.1-0.1-0.1-0.2-0.1-0.3V48.8
		c0-0.5,0.1-0.8,0.4-1.1c0.2-0.2,0.6-0.4,1-0.4h2.3c0.4,0,0.8,0,1.1,0.1c0.3,0.1,0.6,0.2,0.8,0.3c0.2,0.2,0.4,0.4,0.5,0.6
		c0.1,0.3,0.3,0.6,0.4,1l3.8,10.5h0.1l4-10.5c0.1-0.4,0.2-0.7,0.4-1c0.1-0.3,0.3-0.5,0.5-0.6c0.2-0.2,0.4-0.3,0.7-0.3
		c0.3-0.1,0.6-0.1,0.9-0.1h2.4c0.2,0,0.5,0,0.6,0.1c0.2,0.1,0.3,0.2,0.4,0.3c0.1,0.1,0.2,0.3,0.3,0.5c0.1,0.2,0.1,0.4,0.1,0.6
		L27,64.5L27,64.5z"/>
	<path d="M41.3,63.6c0,0.3,0,0.5,0,0.7s-0.1,0.3-0.1,0.4s-0.1,0.2-0.2,0.2C40.9,65,40.9,65,40.8,65h-8.9c-0.3,0-0.6-0.1-0.8-0.3
		c-0.2-0.2-0.3-0.5-0.3-0.9V48.5c0-0.4,0.1-0.7,0.3-0.9c0.2-0.2,0.5-0.3,0.8-0.3h8.8c0.1,0,0.2,0,0.2,0.1c0.1,0,0.1,0.1,0.2,0.2
		c0,0.1,0.1,0.3,0.1,0.4c0,0.2,0,0.4,0,0.7c0,0.3,0,0.5,0,0.6c0,0.2-0.1,0.3-0.1,0.4s-0.1,0.2-0.2,0.2C40.8,50,40.8,50,40.7,50h-6.3
		v4.3h5.3c0.1,0,0.2,0,0.2,0.1c0.1,0.1,0.1,0.1,0.2,0.2c0,0.1,0.1,0.2,0.1,0.4c0,0.2,0,0.4,0,0.6c0,0.3,0,0.5,0,0.7
		s-0.1,0.3-0.1,0.4s-0.1,0.2-0.2,0.2c-0.1,0-0.1,0.1-0.2,0.1h-5.3v5h6.4c0.1,0,0.2,0,0.2,0.1c0.1,0.1,0.1,0.1,0.2,0.2
		c0,0.1,0.1,0.3,0.1,0.4C41.3,63.1,41.3,63.4,41.3,63.6z"/>
	<path d="M59,63.8c0,0.2,0,0.4-0.1,0.6s-0.2,0.3-0.3,0.4S58.3,65,58.2,65c-0.2,0.1-0.3,0.1-0.5,0.1h-1.5c-0.3,0-0.6,0-0.8-0.1
		s-0.4-0.2-0.6-0.3c-0.2-0.2-0.4-0.4-0.6-0.7c-0.2-0.3-0.4-0.7-0.6-1.1l-4.4-8.3c-0.3-0.5-0.5-1-0.8-1.6s-0.5-1.1-0.7-1.7l0,0
		c0,0.7,0.1,1.3,0.1,2s0,1.3,0,2v9.2c0,0.1,0,0.2-0.1,0.2c-0.1,0.1-0.1,0.1-0.3,0.2C47.3,65,47.1,65,46.9,65s-0.5,0-0.8,0
		s-0.6,0-0.8,0s-0.4-0.1-0.5-0.1c-0.1-0.1-0.2-0.1-0.2-0.2s-0.1-0.2-0.1-0.2V48.6c0-0.4,0.1-0.7,0.4-1c0.3-0.2,0.6-0.3,0.9-0.3h1.9
		c0.3,0,0.6,0,0.9,0.1c0.2,0.1,0.4,0.2,0.6,0.3c0.2,0.1,0.4,0.3,0.5,0.6c0.2,0.2,0.3,0.5,0.5,0.9l3.4,6.5c0.2,0.4,0.4,0.8,0.6,1.2
		c0.2,0.4,0.4,0.8,0.6,1.1c0.2,0.4,0.4,0.7,0.5,1.1c0.2,0.4,0.3,0.7,0.5,1.1l0,0c0-0.6,0-1.3-0.1-2c0-0.7,0-1.4,0-2v-8.3
		c0-0.1,0-0.2,0.1-0.2c0.1-0.1,0.1-0.1,0.3-0.2c0.1-0.1,0.3-0.1,0.5-0.1s0.5,0,0.8,0s0.6,0,0.8,0s0.4,0.1,0.5,0.1
		c0.1,0.1,0.2,0.1,0.2,0.2s0.1,0.2,0.1,0.2L59,63.8L59,63.8z"/>
	<path d="M77.3,58.4c0,1.1-0.2,2.1-0.5,2.9c-0.3,0.9-0.8,1.6-1.4,2.2s-1.4,1-2.3,1.4c-0.9,0.3-2,0.5-3.1,0.5s-2.1-0.1-3-0.4
		s-1.6-0.7-2.2-1.3s-1.1-1.3-1.4-2.1c-0.3-0.8-0.5-1.8-0.5-3V47.9c0-0.1,0-0.2,0.1-0.2c0.1-0.1,0.2-0.1,0.3-0.2
		c0.1,0,0.3-0.1,0.6-0.1c0.2,0,0.5,0,0.9,0c0.3,0,0.6,0,0.9,0c0.2,0,0.4,0.1,0.5,0.1s0.2,0.1,0.3,0.2s0.1,0.2,0.1,0.2v10.4
		c0,0.7,0.1,1.3,0.3,1.8c0.2,0.5,0.4,0.9,0.7,1.3c0.3,0.3,0.7,0.6,1.2,0.8c0.5,0.2,1,0.3,1.5,0.3c0.6,0,1.1-0.1,1.5-0.3
		c0.4-0.2,0.8-0.4,1.1-0.8c0.3-0.3,0.5-0.7,0.7-1.2s0.3-1,0.3-1.7V47.9c0-0.1,0-0.2,0.1-0.2c0.1-0.1,0.2-0.1,0.3-0.2
		c0.1,0,0.3-0.1,0.6-0.1c0.2,0,0.5,0,0.9,0c0.3,0,0.6,0,0.9,0c0.2,0,0.4,0.1,0.5,0.1s0.2,0.1,0.3,0.2c0.1,0.1,0.1,0.2,0.1,0.2
		L77.3,58.4L77.3,58.4z"/>
</g>
</svg>
