<svg version="1.1" xmlns="http://www.w3.org/2000/svg" xmlns:xlink="http://www.w3.org/1999/xlink" viewBox="0 0 127.6 85" width="127.6" height="85">
<rect fill="none" width="127.6" height="85"/>
<g>
	<path fill="#fff" d="M37.1,22.7v19.2h-4.8V10.9h13.6v11.8H37.1z M37.1,14.2v1.1h4.1v-1.1H37.1z M41.2,19.4v-1.2h-4.1v1.2H41.2z
		 M61.5,36.9c0,2.1-0.3,3.3-1.5,4.1c-1.2,0.8-2.8,0.9-4.9,0.9c-0.1-1-0.4-2.4-0.9-3.6c-0.6,0.7-1.1,1.5-1.4,2.2
		c-2.6-0.7-4.5-2.1-5.9-3.9c-1.2,1.4-3.2,2.8-6.3,3.8c-0.6-0.9-1.9-2.3-2.9-3.1c3.3-0.9,5-2.2,5.9-3.5h-5.1v-3.5h5.9V29h-5.4v-3.4h2
		c-0.2-0.6-0.5-1.3-0.9-1.9l3.8-1.1c0.6,0.9,1.2,2,1.5,2.9h3.1c0.3-0.9,0.7-2,0.9-2.8h-1.6v-12h13.8V36.9z M49.4,33.8
		c1.3,1.6,3.3,2.7,6,3.2c-0.1,0.1-0.3,0.3-0.4,0.5h1.2c0.4,0,0.5-0.2,0.5-0.6v-14h-6.9l4.1,1.1c-0.4,0.6-0.9,1.2-1.3,1.8h2.3V29
		h-6.2v1.3h6.4v3.5H49.4z M52.3,14.2v1.1h4.3v-1.1H52.3z M52.3,19.5h4.3v-1.3h-4.3V19.5z"/>
	<path fill="#fff" d="M86.9,31.6c2.7,2.4,6.5,4.5,10.2,5.7c-1.2,1-2.8,3-3.5,4.3c-3.8-1.6-7.4-4.3-10.4-7.4v7.6h-5.2v-7.4
		c-2.9,3-6.4,5.5-10.2,7.1c-0.7-1.2-2.3-3.2-3.4-4.1c3.7-1.3,7.3-3.4,10-5.8h-6.2V18.2h9.7v-1.4H65.6v-4.6h12.5V9.6h5.2v2.6h12.8
		v4.6H83.3v1.4h10.1v13.4H86.9z M73.2,23.2h4.9v-1.4h-4.9V23.2z M73.2,28h4.9v-1.4h-4.9V28z M83.3,21.9v1.4h5.1v-1.4H83.3z
		 M88.3,26.6h-5.1V28h5.1V26.6z"/>
	<path fill="#fff" d="M43.6,45.5v21.8h-5.4v-1.7h-5.6v10.4h-5.3V65.5h-5.7v1.7h-5.1V45.5H43.6z M21.6,50.2v3h5.7v-3H21.6z
		 M27.3,60.8v-2.9h-5.7v2.9H27.3z M38.2,50.2h-5.6v3h5.6V50.2z M38.2,60.8v-2.9h-5.6v2.9H38.2z"/>
	<path fill="#fff" d="M59.6,45.2c-0.9,2.1-1.9,4.2-3,6.3v24.3h-4.7V58.6c-0.7,1-1.5,1.8-2.3,2.6c-0.4-1.2-1.7-3.9-2.5-5.1
		c3.1-3,6.2-7.6,8-12.3L59.6,45.2z M80,49.8v3.9H58.3v-3.9H80z M60.3,64.7h18.1v11.1h-5v-1.1H65v1.2h-4.7V64.7z M77.8,58.6H60.9
		v-3.8h16.9V58.6z M60.9,59.8h16.7v3.8H60.9V59.8z M77.2,48.6H61.5v-3.8h15.6V48.6z M65,68.5v2.4h8.4v-2.4H65z"/>
	<path fill="#fff" d="M92.7,69.4c2.1,0.7,4.6,0.9,7.5,0.9c2.9,0,10.7,0,14.1-0.2c-0.7,1.1-1.6,3.4-1.9,4.9h-12.3
		c-6.3,0-10.8-0.8-13.9-5c-0.4,2-1.1,4-2.2,5.7c-0.6-1-2.2-2.5-3.2-3c2.1-3.8,2.2-8.8,2-13.5l4.1,0.2c0,1.2,0,2.4,0,3.7
		c0.3,1,0.7,1.8,1.2,2.5v-8.2h-6.4v-4.3h5.6v-2h-4.5V47h4.5v-3.3H92V47h4.4v4.2H92v2h4.8v4.3h-4.1v3.3h3.6v3.3l1.2-0.6V48.8h5.6
		c-0.1-1.7-0.1-3.4-0.2-5.1h4.6v1.8l3.3-1.7c1,1.2,2.2,2.8,2.7,3.8l-2.2,1.2h2.4v4.1h-5.8c0.1,1.6,0.3,3.2,0.5,4.6
		c0.5-1.2,1-2.4,1.4-3.7l3.8,1c-1,3.2-2.2,6.3-3.9,8.9c0.3,1,0.6,1.6,1,1.6c0.4,0,0.6-1.2,0.7-3.8c0.9,1,2.2,1.9,3.3,2.4
		c-0.6,4.7-1.8,5.8-4.5,5.8c-1.3,0-2.4-0.9-3.3-2.3c-1,1-1.9,1.9-3,2.7c-0.6-1-2-2.5-2.9-3.3c1.3-0.9,2.6-2,3.7-3.3
		c-2.4,1.8-5.2,3.7-7.4,5.2l-1.9-3.6h-2.5V69.4z M101.9,60.8l1.5-0.9l1.4,3.4l0.3-0.4c-0.8-2.9-1.3-6.4-1.6-10.1h-1.6V60.8z
		 M109.7,48.8c-0.5-1-1.4-2.3-2.1-3.3c0,1.1,0,2.2,0.1,3.3H109.7z"/>
</g>
</svg>
